<svg xmlns="http://www.w3.org/2000/svg" viewBox="0 0 512 512" width="512" height="512">
	<defs>
		<clipPath clipPathUnits="userSpaceOnUse" id="cp1">
			<path d="M0 0L512 0L512 512L0 512Z" />
		</clipPath>
	</defs>
	<style>
		tspan { white-space:pre }
		.shp0 { fill: #e5e5e5 } 
		.shp1 { fill: #1c222e } 
		.shp2 { fill: #6dc392 } 
		.shp3 { fill: #fca311 } 
		.shp4 { fill: #313d65 } 
		.shp5 { fill: #d84645 } 
		.shp6 { fill: #313d64 } 
		.shp7 { fill: #b8b8ba } 
		.shp8 { fill: #f26a64 } 
		.shp9 { fill: #ffffff } 
		.shp10 { fill: #f0de6e } 
		.shp11 { fill: #7e97ab } 
		.shp12 { fill: #14213d } 
	</style>
	<g id="Page 1" clip-path="url(#cp1)">
		<path id="Path 2" class="shp0" d="M256,452.86c-107.96,0 -196.07,-88.11 -196.07,-196.07c0,-107.96 88.11,-196.07 196.07,-196.07c107.96,0 196.07,88.11 196.07,196.07c0,107.96 -88.11,196.07 -196.07,196.07zM256,75.81c-99.62,0 -180.59,81.36 -180.59,180.99c0,99.62 80.97,180.59 180.59,180.59c99.62,0 180.59,-80.97 180.59,-180.59c0,-99.62 -80.97,-180.99 -180.59,-180.99z" />
		<path id="Path 3" class="shp1" d="M256,455.64c-109.54,0 -198.85,-89.3 -198.85,-198.85c0,-109.54 89.3,-198.85 198.85,-198.85c109.54,0 198.85,89.3 198.85,198.85c0,109.54 -89.3,198.85 -198.85,198.85zM256,63.5c-106.37,0 -193.29,86.52 -193.29,193.29c0,106.77 86.52,193.29 193.29,193.29c106.77,0 193.29,-86.52 193.29,-193.29c0,-106.77 -86.92,-193.29 -193.29,-193.29zM256,440.16c-101.21,0 -183.37,-82.16 -183.37,-183.37c0,-101.21 82.16,-183.76 183.37,-183.76c101.21,0 183.37,82.16 183.37,183.37c0,101.21 -82.16,183.76 -183.37,183.76zM256,78.98c-98.03,0 -177.81,79.78 -177.81,177.81c0,98.03 79.78,177.81 177.81,177.81c98.03,0 177.81,-79.78 177.81,-177.81c0,-98.03 -79.78,-177.81 -177.81,-177.81z" />
		<path id="Path 4" class="shp2" d="M371.1,350.07l-29.37,-4.76c-1.59,0 -22.62,-3.57 -39.29,-6.35l-1.98,-0.4l-13.49,-2.38l-2.38,-0.4l-21.43,16.67l-1.98,1.59l-1.98,-1.59l-19.84,-16.67l-4.37,0.79l-11.11,1.98l-1.98,0.4l-1.98,0.4l-11.91,1.98l-27.39,4.37l-28.58,4.76c-23.42,3.97 -40.48,23.81 -40.48,47.63v62.31c38.5,28.18 85.73,45.25 136.93,46.83c0.4,0 0.4,0 0.79,0c0.4,0 1.19,0 1.59,0c1.19,0 1.98,0 3.18,0c0.79,0 1.59,0 2.38,0c3.97,0 7.94,-0.4 11.91,-0.4c1.19,-0.4 1.98,-0.4 3.18,-0.4c0.4,0 1.19,0 1.59,0c0.4,0 0.4,0 0.79,0c51.99,-3.97 99.62,-23.42 137.72,-54.38v-54.38c0,-23.81 -17.46,-43.66 -40.48,-47.63z" />
		<path id="Path 5" class="shp1" d="M256,510.02c-0.79,0 -1.59,0 -2.38,0c-0.79,0 -1.98,0 -3.18,0c-0.4,0 -1.19,0 -1.59,0c-0.4,0 -0.79,0 -1.19,0c-50.01,-1.59 -98.03,-17.86 -138.52,-47.63c-0.79,-0.4 -1.19,-1.59 -1.19,-2.38v-62.31c0,-25 17.86,-46.44 42.87,-50.41l28.58,-4.76c0,0 0,0 0.4,0l26.99,-4.37l27.39,-4.76l4.37,-0.79c0.79,0 1.59,0 2.38,0.79l19.84,16.67l21.43,-16.67c0.79,-0.4 1.59,-0.79 2.38,-0.4c28.97,4.76 9.53,1.59 86.52,14.29c25,3.97 42.87,25.4 42.87,50.41v54.38c0,0.79 -0.4,1.59 -1.19,2.38c-40.09,32.15 -88.11,51.2 -139.31,54.77c-0.4,0 -0.79,0 -1.19,0c-0.4,0 -1.19,0 -1.59,0c-0.4,0 -1.19,0 -1.98,0h-1.19c-3.18,0.79 -7.54,0.79 -11.51,0.79zM253.62,504.06c0.79,0 1.59,0 2.38,0c3.97,0 7.94,0 11.91,-0.4c0.79,0 2.38,0 2.78,0c0.79,0 1.19,0 1.59,0h0.79c49.61,-3.57 96.05,-21.83 134.95,-52.79v-53.18c0,-22.23 -15.88,-41.28 -38.1,-44.85c-77,-12.7 -50.8,-8.33 -85.33,-13.89l-22.23,17.07c-1.19,0.79 -2.38,0.79 -3.57,0l-1.98,-1.59c0,0 0.79,0.79 -19.05,-16.27l-3.18,0.4c0,0 0,0 -0.4,0l-27.39,4.37l-26.99,4.37c0,0 0,0 -0.4,0l-28.58,4.76c-21.83,3.57 -38.1,22.62 -38.1,44.85v61.12c39.29,28.18 85.73,44.06 134.15,45.64c0.4,0 0.79,0 0.79,0c0.79,0 1.19,0 1.59,0c2.38,0.4 3.18,0.4 4.37,0.4z" />
		<path id="Path 6" class="shp3" d="M221.47,353.64h78.98v-81.76h-78.98z" />
		<path id="Path 7" class="shp4" d="M300.06,356.81h-78.59c-1.59,0 -2.78,-1.19 -2.78,-2.78v-82.16c0,-1.59 1.19,-2.78 2.78,-2.78h78.98c1.59,0 2.78,1.19 2.78,2.78v81.76c0,1.98 -1.59,3.18 -3.18,3.18zM224.25,350.86h73.03v-76.2h-73.03z" />
		<path id="Path 8" class="shp0" d="M315.53,390.95h28.58l-1.59,-45.25c0,0 -20.64,-3.18 -39.29,-5.95l-1.98,-0.4l-3.97,-0.4l-13.89,13.89l-19.45,-0.4h-0.4c-1.19,0 -3.57,0 -4.76,0l-17.86,-0.4l-15.48,-13.89l-1.59,0.4l-2.38,0.4l-1.98,0.4l-11.91,1.59l-27.78,4.37l-1.19,45.64h27.78l-0.4,1.59l-10.32,37.71l0.4,0.4l53.18,76.6c0.4,0 1.19,0 1.59,0c1.19,0 1.98,0 3.18,0c0.79,0 1.59,0 2.38,0c3.97,0 7.94,-0.4 11.91,-0.4c1.19,-0.4 1.98,-0.4 3.18,-0.4c0.4,0 1.19,0 1.59,0l52.79,-76.2l0.4,-0.4l-10.32,-37.71l-0.4,-1.59z" />
		<path id="Path 9" class="shp1" d="M256,510.02c-0.79,0 -1.59,0 -2.38,0c-0.79,0 -1.98,0 -3.18,0c-0.4,0 -1.19,0 -1.59,0c-0.79,0 -1.59,-0.4 -1.98,-1.19l-53.58,-77c-0.4,-0.79 -0.79,-1.59 -0.4,-2.38l9.92,-35.72h-23.81c-1.59,0 -2.78,-1.19 -2.78,-3.18l1.59,-45.25c0,-1.59 1.19,-2.78 2.78,-2.78l44.85,-6.75c0.79,0 1.59,0 2.38,0.79l14.69,13.1l39.69,0.4l12.7,-13.1c0.79,-0.79 1.59,-0.79 2.38,-0.79l45.25,6.75c1.59,0.4 2.38,1.59 2.38,2.78l1.59,45.25c0,1.59 -1.19,3.18 -2.78,3.18h-23.81l9.92,35.72c0.4,0.79 0,1.59 -0.4,2.38l-0.4,0.4l-53.58,75.41c-0.4,0.79 -1.19,1.19 -2.38,1.19c-0.79,0 -1.19,0 -1.98,0c-0.4,0 -1.19,0 -1.98,0h-1.19c-3.57,0.79 -7.94,0.79 -11.91,0.79zM253.62,504.06c0.79,0 1.59,0 2.38,0c3.97,0 7.94,0 11.91,-0.4c0.79,0 2.38,0 2.78,0h0.4l51.6,-74.22l-10.32,-38.1c-0.4,-0.79 0,-1.98 0.4,-2.38c0.4,-0.79 1.59,-1.19 2.38,-1.19h24.61l-1.19,-39.69h-0.4l-41.28,-5.95l-12.7,13.1c-0.4,0.4 -1.19,0.79 -1.98,0.79l-42.07,-0.4c-0.79,0 -1.19,-0.4 -1.98,-0.79l-13.89,-13.49l-4.37,0.79l-37.31,5.56l-1.19,39.69h24.61c0.79,0 1.59,0.4 2.38,1.19c1.19,1.19 0.4,2.38 0,3.97c0,0 0.4,-1.19 -10.32,36.51l52.39,75.01c1.19,0 1.98,0 3.18,0z" />
		<path id="Path 10" class="shp5" d="M271.48,353.64h-20.64l-8.73,27.78l8.73,9.13h20.64l7.94,-9.13z" />
		<path id="Path 11" class="shp6" d="M271.48,393.33h-20.64c-0.79,0 -1.59,-0.4 -1.98,-0.79l-8.73,-9.13c-0.79,-0.79 -1.19,-1.98 -0.79,-2.78l8.73,-27.78c0.4,-1.19 1.59,-1.98 2.78,-1.98h20.64c1.19,0 2.38,0.79 2.78,1.98l7.94,27.78c0.4,0.79 0,1.98 -0.79,2.78l-7.94,9.13c-0.4,0.4 -1.19,0.79 -1.98,0.79zM252.03,387.77h17.86l5.95,-6.75l-6.75,-24.21h-16.27l-7.54,24.21z" />
		<path id="Path 12" class="shp7" d="M260.76,353.64l18.65,27.39l40.48,-45.25l-19.84,-8.73z" />
		<path id="Path 13" class="shp4" d="M279.02,384.2c-0.79,0 -1.59,-0.4 -2.38,-1.19l-18.26,-27.39c-0.79,-1.19 -0.4,-3.18 0.79,-3.97l39.29,-26.99c0.79,-0.4 1.98,-0.79 2.78,-0.4l19.84,8.73c1.98,0.79 2.38,3.18 1.19,4.76l-40.88,45.25c-0.4,0.79 -1.19,1.19 -2.38,1.19zM264.73,354.43l14.69,21.83l35.32,-39.69l-14.69,-6.35z" />
		<path id="Path 14" class="shp7" d="M221.47,327.04l-18.65,8.33l39.29,45.64l18.65,-27.39z" />
		<path id="Path 15" class="shp4" d="M240.12,383.01l-39.69,-45.64c-1.19,-1.59 -0.79,-3.57 1.19,-4.37l18.65,-8.33c0.79,-0.4 1.98,-0.4 2.78,0.4l39.29,26.99c1.19,0.79 1.59,2.78 0.79,3.97l-18.26,27.39c-0.4,0.79 -1.19,1.19 -2.38,1.19c-0.79,-0.4 -1.98,-0.79 -2.38,-1.59zM207.58,336.57l34.53,40.09l14.69,-21.83l-35.72,-24.21z" />
		<path id="Path 16" class="shp8" d="M285.37,461.59l-5.16,-21.04l-7.94,-49.61h-20.64l-7.54,47.63l-0.79,4.37l-5.16,20.64l-3.97,15.08l16.67,28.97c1.19,0 1.98,0 3.18,0c0.79,0 1.59,0 2.38,0c3.97,0 7.94,-0.4 11.91,-0.4c1.19,-0.4 1.98,-0.4 3.18,-0.4l16.67,-29.77z" />
		<path id="Path 17" class="shp4" d="M256,510.02c-0.79,0 -1.59,0 -2.38,0c-0.79,0 -1.98,0 -3.18,0c-1.19,0 -1.98,-0.4 -2.38,-1.59l-16.67,-28.97c-0.4,-0.79 -0.4,-1.59 -0.4,-1.98l9.13,-35.72l0.79,-3.97l7.54,-47.63c0.4,-1.59 1.59,-2.38 2.78,-2.38h20.64c1.59,0 2.78,1.19 2.78,2.38l7.94,49.61l5.16,20.64c0,0 0,0 0,0.4l3.97,15.48c0,0.79 0,1.59 -0.4,1.98l-17.46,29.77c-0.4,0.79 -1.19,1.19 -2.38,1.59c-0.79,0 -1.59,0 -2.38,0h-1.19c-3.57,0.4 -7.94,0.4 -11.91,0.4zM253.62,504.06c0.79,0 1.59,0 2.38,0c3.97,0 7.94,0 11.91,-0.4c0.4,0 1.19,0 1.59,0l15.48,-27.39l-3.57,-14.29c0,0 0,0 0,-0.4l-5.16,-21.04l-7.54,-47.63h-15.48l-7.54,49.22l-8.73,34.93l15.08,26.59c0.4,0.4 1.19,0.4 1.59,0.4z" />
		<path id="Path 18" class="shp9" d="M315.14,391.74h0.4l27.39,5.56v-7.14l-1.19,-45.25l-21.83,-9.53l-19.45,-8.73c0.79,3.97 1.59,7.94 1.98,11.91c0,0.4 0,0.4 0,0.79c0.79,4.76 1.19,9.92 1.19,14.69c1.19,32.55 -6.75,69.06 -19.05,107.56c-4.76,14.69 -10.32,29.77 -16.27,45.25c1.19,-0.4 1.98,-0.4 3.18,-0.4c0.4,0 1.19,0 1.59,0c0.4,0 0.4,0 0.79,0l52.39,-75.01l-0.4,-1.19z" />
		<path id="Path 19" class="shp4" d="M267.91,509.62c-1.98,0 -3.57,-1.98 -2.78,-3.97c6.35,-15.88 11.51,-30.96 16.27,-45.25c0,0 0,0 0,-0.4c13.89,-42.47 19.84,-77.4 19.05,-106.37c0,-4.76 -0.4,-9.53 -1.19,-14.29l2.78,-0.79l-2.78,0.4c-0.4,-3.97 -1.19,-7.94 -1.98,-11.91c-0.4,-1.19 0,-1.98 0.79,-2.78c0.79,-0.79 1.98,-0.79 3.18,-0.4l41.67,18.26c1.19,0.4 1.59,1.59 1.59,2.78l1.59,52.39c0,0.79 -0.4,1.59 -1.19,2.38c-0.79,0.4 -1.59,0.79 -2.38,0.79l-23.02,-4.76l9.53,34.93c0.4,0.79 0,1.59 -0.4,2.38l-52.39,75.01c-0.4,0.79 -1.19,1.19 -1.98,1.19c-0.4,0 -0.79,0 -1.19,0c-0.4,0 -1.19,0 -1.59,0c-0.4,0 -1.19,0 -1.98,0zM287.36,461.99c-0.4,0 -0.4,0.4 0,0c-4.37,13.1 -9.13,26.99 -14.69,41.28l50.8,-72.63l-10.72,-37.71c-0.4,-0.79 0,-1.98 0.79,-2.78c0.79,-0.79 1.59,-1.19 2.78,-0.79c0.79,0 23.42,4.76 24.21,4.76l-1.19,-46.83l-34.53,-15.08c0.4,1.98 0.79,4.37 1.19,6.35c0,0.4 0,0.79 0,1.19c0.79,4.37 1.19,9.53 1.19,14.29c0,29.77 -5.95,65.09 -19.84,107.96z" />
		<path id="Path 20" class="shp9" d="M217.9,352.84c0,-4.76 0.4,-9.53 1.19,-13.89v-0.4c0.4,-3.97 1.19,-7.54 1.98,-11.51l-41.28,18.26l-1.19,45.25v1.59v5.56l27.39,-5.56h0.4l-10.72,38.5l-0.4,1.19l52.79,75.41c0.4,0 0.4,0 0.79,0c0.4,0 1.19,0 1.59,0c1.19,0 1.98,0 3.18,0c-5.95,-15.08 -11.11,-30.16 -15.88,-44.45c-13.1,-39.29 -21.04,-76.6 -19.84,-109.94z" />
		<path id="Path 21" class="shp4" d="M253.62,510.02c-1.19,0 -2.38,0 -3.18,0c-0.4,0 -1.19,0 -1.59,0c-0.4,0 -0.79,0 -1.19,0c-0.79,0 -1.59,-0.4 -1.98,-1.19l-52.79,-75.41c-0.4,-0.4 -0.4,-1.19 -0.4,-1.59c0,-0.4 0,-0.4 0,-0.79l0.4,-1.19l9.53,-33.74l-23.02,4.76c-0.79,0 -1.59,0 -2.38,-0.79c-0.79,-0.4 -1.19,-1.59 -1.19,-2.38l1.59,-52.39c0,-1.19 0.79,-2.38 1.98,-2.78l41.28,-18.26c1.19,-0.4 1.98,-0.4 3.18,0.4c0.79,0.79 1.19,1.98 0.79,2.78c-0.79,3.57 -1.59,7.14 -1.98,11.51v0.4c-0.4,4.37 -0.79,8.73 -1.19,13.49c-1.19,29.37 5.16,65.09 19.45,108.75c4.37,13.89 9.92,28.58 15.88,44.06c0.4,0.79 0.4,1.98 -0.4,2.78c-0.79,1.19 -1.98,1.59 -2.78,1.59zM198.45,431.03l50.8,72.63c-5.16,-13.89 -9.92,-26.99 -14.29,-39.69c-14.29,-44.45 -21.04,-80.57 -19.84,-110.73c0.4,-4.76 0.79,-9.53 1.19,-13.89c0,-0.4 0,-0.79 0,-0.79c0.4,-1.98 0.79,-4.37 0.79,-6.35l-34.53,15.08l-1.19,46.83l24.21,-4.76c0.79,0 1.98,0 2.78,0.79c0.79,0.79 0.79,1.59 0.79,2.78z" />
		<path id="Path 22" class="shp10" d="M326.65,211.15c-0.4,-0.4 -1.19,-0.4 -1.59,-0.4c-7.94,-39.69 -33.34,-69.06 -63.9,-69.06c-30.56,0 -56.36,29.37 -63.9,69.06c-0.4,0 -1.19,0.4 -1.59,0.4c-8.73,1.98 -13.49,13.49 -10.72,26.2c1.98,7.94 6.35,14.29 11.51,17.46c5.95,42.07 32.94,71.04 64.69,71.04c31.75,0 58.34,-28.97 64.69,-71.04c5.16,-3.18 9.92,-9.53 11.51,-17.46c2.78,-12.7 -1.98,-24.21 -10.72,-26.2z" />
		<path id="Path 23" class="shp4" d="M261.16,328.63c-32.94,0 -60.73,-29.77 -67.47,-72.24c-5.56,-3.97 -9.92,-10.72 -11.51,-18.65c-3.18,-14.29 2.38,-27.39 12.7,-29.77c8.73,-40.88 35.72,-69.46 66.28,-69.46c30.56,0 57.55,28.18 66.28,69.06c10.72,2.38 15.88,15.88 12.7,29.77c-1.59,7.94 -5.95,14.69 -11.51,18.65c-6.75,43.26 -34.53,72.63 -67.47,72.63zM261.16,144.87c-28.18,0 -53.18,27.39 -61.12,66.68c-0.4,1.19 -1.59,2.38 -2.78,2.38c-0.4,0 -0.79,0 -1.19,0c-7.14,1.59 -11.11,11.91 -8.33,23.02c1.59,6.75 5.16,12.7 9.92,15.48c0.79,0.4 1.19,1.19 1.59,1.98c5.95,40.48 31.36,68.66 61.92,68.66c30.56,0 55.96,-28.18 61.92,-68.66c0,-0.79 0.79,-1.59 1.59,-1.98c4.76,-2.78 8.33,-8.73 9.92,-15.48c2.38,-11.51 -1.59,-21.43 -8.33,-22.62c-0.4,0 -0.79,0 -1.19,0c-1.59,0 -2.78,-0.79 -2.78,-2.38c-7.94,-39.69 -32.94,-67.08 -61.12,-67.08z" />
		<path id="Path 24" class="shp11" d="M297.28,134.55c-96.84,-34.53 -106.37,48.82 -106.37,48.82c-8.33,39.29 5.16,57.95 5.16,57.95c0,-5.95 0,-11.11 0.4,-15.88c0.79,-17.07 18.65,-27.39 34.13,-20.64c34.13,15.08 52.39,6.35 62.31,-5.95c8.33,-10.72 25,-6.35 26.99,6.75c2.38,14.69 2.78,29.77 2.78,37.71c0,1.19 1.59,1.19 1.98,0.4c5.16,-13.1 7.94,-27.39 7.94,-41.67c-1.59,-55.96 -35.32,-67.47 -35.32,-67.47z" />
		<path id="Path 25" class="shp4" d="M322.68,247.27c-1.98,-0.4 -3.18,-1.98 -3.18,-3.97c0,-7.94 -0.4,-23.02 -2.78,-37.31c-1.59,-10.72 -15.08,-13.89 -21.83,-5.56c-9.53,11.91 -28.58,23.02 -65.49,6.75c-13.89,-5.95 -29.37,3.57 -30.16,18.26c-0.4,4.76 -0.4,9.92 -0.4,15.48c0,1.19 -0.79,2.38 -1.98,2.78c-1.19,0.4 -2.38,0 -3.18,-1.19c-0.4,-0.79 -14.29,-20.24 -5.56,-60.33c0,-1.19 3.97,-33.34 30.96,-50.01c19.84,-12.3 46.44,-12.7 79.38,-0.79c1.98,0.79 35.72,13.1 36.91,70.25c0.4,14.29 -2.38,28.58 -7.94,42.87c-1.19,2.38 -3.18,3.18 -4.76,2.78zM322.28,205.59c1.59,9.53 2.38,19.84 2.38,27.78c3.18,-10.32 4.37,-20.24 4.37,-30.56c-0.79,-53.58 -31.75,-64.3 -32.94,-65.09c-30.96,-11.11 -56.36,-11.11 -74.62,0.4c-24.21,15.08 -28.18,45.64 -28.18,46.04c-4.37,19.84 -2.78,34.13 -0.4,43.66c0,-0.79 0,-1.19 0,-1.98c1.59,-19.45 21.43,-30.96 38.5,-23.42c26.99,11.91 46.83,9.92 58.74,-5.16c10.32,-12.7 29.77,-7.54 32.15,8.33z" />
		<path id="Path 26" class="shp10" d="M256,4.76c-28.93,0 -52.39,23.46 -52.39,52.39c0,28.93 23.46,52.39 52.39,52.39c28.93,0 52.39,-23.46 52.39,-52.39c0,-28.93 -23.46,-52.39 -52.39,-52.39z" />
		<path id="Path 27" class="shp12" d="M256,112.32c-30.56,0 -55.17,-24.61 -55.17,-55.17c0,-30.56 24.61,-55.17 55.17,-55.17c30.56,0 55.17,24.61 55.17,55.17c0,30.56 -24.61,55.17 -55.17,55.17zM256,7.94c-27.39,0 -49.22,22.23 -49.22,49.22c0,26.99 22.23,49.22 49.22,49.22c26.99,0 49.22,-22.23 49.22,-49.22c0,-26.99 -21.83,-49.22 -49.22,-49.22z" />
		<path id="Path 28" class="shp3" d="M256,15.08c-23.24,0 -42.07,18.84 -42.07,42.07c0,23.24 18.84,42.07 42.07,42.07c23.24,0 42.07,-18.84 42.07,-42.07c0,-23.24 -18.84,-42.07 -42.07,-42.07z" />
		<path id="Path 29" class="shp0" d="M254.81,75.41c-4.76,-0.4 -9.53,-2.38 -13.1,-5.95l3.97,-4.76c3.18,2.78 5.95,4.37 9.13,4.76v-10.32c-3.97,-0.79 -7.14,-2.38 -8.73,-3.97c-1.98,-1.59 -2.78,-3.97 -2.78,-7.14c0,-3.18 1.19,-5.56 3.18,-7.54c1.98,-1.98 5.16,-3.18 8.33,-3.18v-2.38h3.57v2.78c3.97,0.4 7.54,1.59 11.11,3.97l-3.57,4.76c-2.38,-1.59 -4.76,-2.78 -7.54,-3.18v10.32c3.97,0.79 7.14,2.38 9.13,3.97c1.98,1.59 2.78,3.97 2.78,7.14c0,3.18 -1.19,5.56 -3.18,7.54c-2.38,1.98 -5.16,3.18 -8.73,3.18v3.97h-3.57zM250.84,44.85c-0.79,0.79 -1.19,1.98 -1.19,3.18c0,1.19 0.4,1.98 1.19,2.78c0.79,0.79 1.98,1.19 3.97,1.98v-9.13c-1.59,-0.4 -2.78,0.4 -3.97,1.19zM262.35,68.27c1.19,-0.79 1.59,-1.98 1.59,-3.18c0,-1.19 -0.4,-2.38 -1.19,-3.18c-0.79,-0.79 -2.38,-1.59 -4.37,-1.98v9.53c1.59,0.4 2.78,-0.4 3.97,-1.19z" />
		<path id="Path 30" class="shp10" d="M447.7,204.4c-28.93,0 -52.39,23.46 -52.39,52.39c0,28.93 23.46,52.39 52.39,52.39c28.93,0 52.39,-23.46 52.39,-52.39c0,-28.93 -23.46,-52.39 -52.39,-52.39z" />
		<path id="Path 31" class="shp12" d="M447.7,311.96c-30.56,0 -55.17,-24.61 -55.17,-55.17c0,-30.56 24.61,-55.17 55.17,-55.17c30.56,0 55.17,24.61 55.17,55.17c0,30.56 -24.61,55.17 -55.17,55.17zM447.7,207.18c-27.39,0 -49.22,22.23 -49.22,49.22c0,27.39 22.23,49.22 49.22,49.22c27.39,0 49.22,-22.23 49.22,-49.22c0.4,-26.99 -21.83,-49.22 -49.22,-49.22z" />
		<path id="Path 32" class="shp3" d="M447.7,214.72c-23.24,0 -42.07,18.84 -42.07,42.07c0,23.24 18.84,42.07 42.07,42.07c23.24,0 42.07,-18.84 42.07,-42.07c0,-23.24 -18.84,-42.07 -42.07,-42.07z" />
		<path id="Path 33" class="shp0" d="M446.51,275.05c-4.76,-0.4 -9.53,-2.38 -13.1,-5.95l3.97,-4.76c3.18,2.78 5.95,4.37 9.13,4.76v-10.32c-3.97,-0.79 -7.14,-2.38 -8.73,-3.97c-1.98,-1.59 -2.78,-3.97 -2.78,-7.14c0,-3.18 1.19,-5.56 3.18,-7.54c1.98,-1.98 5.16,-3.18 8.33,-3.18v-2.78h3.57v2.78c3.97,0.4 7.54,1.59 11.11,3.97l-3.57,4.76c-2.38,-1.59 -4.76,-2.78 -7.54,-3.18v10.32c3.97,0.79 7.14,2.38 9.13,3.97c1.98,1.59 2.78,3.97 2.78,7.14c0,3.18 -1.19,5.56 -3.18,7.54c-2.38,1.98 -5.16,3.18 -8.73,3.18v3.97h-3.57zM442.94,244.09c-0.79,0.79 -1.19,1.98 -1.19,3.18c0,1.19 0.4,1.98 1.19,2.78c0.79,0.79 1.98,1.19 3.97,1.98v-9.13c-1.98,0 -3.18,0.4 -3.97,1.19zM454.45,267.91c1.19,-0.79 1.59,-1.98 1.59,-3.18c0,-1.19 -0.4,-2.38 -1.19,-3.18c-0.79,-0.79 -2.38,-1.59 -4.37,-1.98v9.53c1.59,0 2.78,-0.4 3.97,-1.19z" />
		<path id="Path 34" class="shp10" d="M64.3,204.4c-28.93,0 -52.39,23.46 -52.39,52.39c0,28.93 23.46,52.39 52.39,52.39c28.93,0 52.39,-23.46 52.39,-52.39c0,-28.93 -23.46,-52.39 -52.39,-52.39z" />
		<path id="Path 35" class="shp12" d="M64.3,311.96c-30.56,0 -55.17,-24.61 -55.17,-55.17c0,-30.56 24.61,-55.17 55.17,-55.17c30.56,0 55.17,24.61 55.17,55.17c0,30.56 -25,55.17 -55.17,55.17zM64.3,207.18c-27.39,0 -49.22,22.23 -49.22,49.22c0,27.39 22.23,49.22 49.22,49.22c26.99,0 49.22,-22.23 49.22,-49.22c0,-26.99 -22.23,-49.22 -49.22,-49.22z" />
		<path id="Path 36" class="shp3" d="M64.3,214.72c-23.24,0 -42.07,18.84 -42.07,42.07c0,23.24 18.84,42.07 42.07,42.07c23.24,0 42.07,-18.84 42.07,-42.07c0,-23.24 -18.84,-42.07 -42.07,-42.07z" />
		<path id="Path 37" class="shp0" d="M63.11,275.05c-4.76,-0.4 -9.53,-2.38 -13.1,-5.95l3.97,-4.76c3.18,2.78 5.95,4.37 9.13,4.76v-10.32c-3.97,-0.79 -7.14,-2.38 -8.73,-3.97c-1.98,-1.59 -2.78,-3.97 -2.78,-7.14c0,-3.18 1.19,-5.56 3.18,-7.54c1.98,-1.98 5.16,-3.18 8.33,-3.18v-2.78h3.57v2.78c3.97,0.4 7.54,1.59 11.11,3.97l-3.57,5.16c-2.38,-1.59 -4.76,-2.78 -7.54,-3.18v10.32c3.97,0.79 7.14,2.38 9.13,3.97c1.98,1.59 2.78,3.97 2.78,7.14c0,3.18 -1.19,5.56 -3.18,7.54c-2.38,1.98 -5.16,3.18 -8.73,3.18v3.97h-3.57zM59.14,244.09c-0.79,0.79 -1.19,1.98 -1.19,3.18c0,1.19 0.4,1.98 1.19,2.78c0.79,0.79 1.98,1.19 3.97,1.98v-9.13c-1.98,0 -3.18,0.4 -3.97,1.19zM70.65,267.91c1.19,-0.79 1.59,-1.98 1.59,-3.18c0,-1.19 -0.4,-2.38 -1.19,-3.18c-0.79,-0.79 -2.38,-1.59 -4.37,-1.98v9.53c1.59,0 2.78,-0.4 3.97,-1.19z" />
	</g>
</svg>